<?xml version="1.0" encoding="UTF-8" standalone="no"?>
<!DOCTYPE svg PUBLIC "-//W3C//DTD SVG 1.1//EN" "http://www.w3.org/Graphics/SVG/1.1/DTD/svg11.dtd">
<svg width="100%" height="100%" viewBox="130 450 830 190" version="1.1" xmlns="http://www.w3.org/2000/svg" xmlns:xlink="http://www.w3.org/1999/xlink" xml:space="preserve" xmlns:serif="http://www.serif.com/" style="fill-rule:evenodd;clip-rule:evenodd;stroke-linejoin:round;stroke-miterlimit:2;">
    <g transform="matrix(0.489191,0,0,0.489191,216.011812,457.410589)">
        <path d="M352.094,236.326L362.931,236.326C368.793,236.326 373.02,236.867 375.61,237.949C378.201,239.032 380.244,240.783 381.74,243.204C383.236,245.624 383.984,248.525 383.984,251.906C383.984,255.652 383.005,258.766 381.047,261.247C379.089,263.728 376.431,265.455 373.074,266.428C371.104,266.988 367.516,267.268 362.31,267.268L362.31,290L352.094,290L352.094,236.326ZM362.31,257.306L365.558,257.306C368.112,257.306 369.888,257.124 370.885,256.759C371.882,256.394 372.667,255.792 373.239,254.953C373.81,254.114 374.096,253.098 374.096,251.906C374.096,249.838 373.293,248.33 371.688,247.382C370.52,246.676 368.355,246.323 365.193,246.323L362.31,246.323L362.31,257.306Z" style="fill:rgb(204,25,57);fill-rule:nonzero;"/>
        <path d="M430.551,234.975C438.141,234.975 444.666,237.724 450.127,243.222C455.588,248.719 458.319,255.421 458.319,263.327C458.319,271.16 455.625,277.789 450.236,283.213C444.848,288.638 438.311,291.35 430.624,291.35C422.572,291.35 415.883,288.565 410.555,282.994C405.228,277.424 402.564,270.807 402.564,263.145C402.564,258.012 403.805,253.293 406.286,248.987C408.767,244.681 412.179,241.27 416.521,238.752C420.863,236.234 425.54,234.975 430.551,234.975ZM430.441,244.973C425.479,244.973 421.307,246.7 417.926,250.155C414.545,253.609 412.854,258 412.854,263.327C412.854,269.262 414.983,273.957 419.24,277.411C422.548,280.112 426.343,281.462 430.624,281.462C435.465,281.462 439.588,279.71 442.993,276.207C446.399,272.704 448.102,268.387 448.102,263.254C448.102,258.146 446.387,253.822 442.957,250.282C439.527,246.743 435.355,244.973 430.441,244.973Z" style="fill:rgb(204,25,57);fill-rule:nonzero;"/>
        <path d="M528.493,245.776L521.341,252.599C516.476,247.467 511.003,244.9 504.922,244.9C499.789,244.9 495.465,246.652 491.95,250.155C488.435,253.658 486.677,257.975 486.677,263.108C486.677,266.684 489.013,272.632 489.013,272.632C489.013,272.632 492.771,277.582 495.617,279.163C498.463,280.744 501.625,281.535 505.104,281.535C508.072,281.535 510.784,280.981 513.241,279.874C515.698,278.768 518.398,276.755 521.341,273.836L528.274,281.06C524.309,284.928 520.563,287.61 517.036,289.106C513.509,290.602 509.483,291.35 504.958,291.35C496.614,291.35 489.785,288.705 484.47,283.414C479.155,278.123 476.497,271.342 476.497,263.072C476.497,257.72 477.707,252.964 480.128,248.805C482.548,244.645 486.015,241.3 490.527,238.77C495.039,236.24 499.898,234.975 505.104,234.975C509.531,234.975 513.794,235.912 517.893,237.785C521.992,239.658 525.525,242.322 528.493,245.776Z" style="fill:rgb(204,25,57);fill-rule:nonzero;"/>
        <path d="M543.351,236.326L573.016,236.326L573.016,246.396L563.237,246.396L563.237,290L552.875,290L552.875,246.396L543.351,246.396L543.351,236.326Z" style="fill:rgb(204,25,57);fill-rule:nonzero;"/>
        <rect x="590.502" y="236.326" width="10.144" height="53.674" style="fill:rgb(204,25,57);fill-rule:nonzero;"/>
        <path d="M619.262,236.326L629.77,236.326L643.271,274.456L656.954,236.326L667.463,236.326L648.124,290L638.272,290L619.262,236.326Z" style="fill:rgb(204,25,57);fill-rule:nonzero;"/>
        <path d="M686.918,236.326L716.219,236.326L716.219,246.323L697.062,246.323L697.062,256.029L716.219,256.029L716.219,265.845L697.062,265.845L697.062,279.966L716.219,279.966L716.219,290L686.918,290L686.918,236.326ZM703.265,217.862L715.051,217.862L701.696,232.166L694.545,232.166L703.265,217.862Z" style="fill:rgb(204,25,57);fill-rule:nonzero;"/>
        <path d="M782.423,236.326L792.677,236.326L792.677,271.938C792.677,277.606 792.226,281.583 791.326,283.87C790.426,286.157 788.943,287.975 786.875,289.325C784.807,290.675 782.326,291.35 779.431,291.35C773.52,291.35 768.485,288.759 764.325,283.578L771.696,276.682C773.325,278.53 774.712,279.771 775.855,280.404C776.999,281.036 778.105,281.352 779.176,281.352C780.27,281.352 781.085,280.89 781.621,279.966C782.156,279.041 782.423,277.01 782.423,273.872L782.423,236.326Z" style="fill:rgb(204,25,57);fill-rule:nonzero;"/>
        <path d="M815.416,236.326L825.56,236.326L825.56,290L815.416,290L815.416,236.326ZM822.239,217.862L834.025,217.862L820.67,232.166L813.519,232.166L822.239,217.862Z" style="fill:rgb(204,25,57);fill-rule:nonzero;"/>
        <path d="M848.299,236.326L860.414,236.326C868.222,236.326 874.024,237.292 877.819,239.226C881.613,241.16 884.739,244.304 887.196,248.659C889.653,253.013 890.881,258.097 890.881,263.911C890.881,268.046 890.194,271.847 888.82,275.313C887.445,278.78 885.548,281.656 883.128,283.943C880.707,286.23 878.086,287.811 875.264,288.686C872.443,289.562 867.553,290 860.596,290L848.299,290L848.299,236.326ZM858.48,246.177L858.48,280.002L863.223,280.002C867.894,280.002 871.281,279.467 873.385,278.397C875.489,277.326 877.21,275.526 878.548,272.996C879.886,270.467 880.555,267.353 880.555,263.655C880.555,257.963 878.962,253.548 875.775,250.41C872.905,247.588 868.295,246.177 861.946,246.177L858.48,246.177Z" style="fill:rgb(204,25,57);fill-rule:nonzero;"/>
        <path d="M911.797,236.326L922.013,236.326L922.013,280.258L936.901,280.258L936.901,290L911.797,290L911.797,236.326Z" style="fill:rgb(204,25,57);fill-rule:nonzero;"/>
        <path d="M981.241,234.975C988.831,234.975 995.356,237.724 1000.817,243.222C1006.278,248.719 1009.009,255.421 1009.009,263.327C1009.009,271.16 1006.315,277.789 1000.927,283.213C995.539,288.638 989.001,291.35 981.314,291.35C973.263,291.35 966.573,288.565 961.246,282.994C955.918,277.424 953.255,270.807 953.255,263.145C953.255,258.012 954.495,253.293 956.977,248.987C959.458,244.681 962.869,241.27 967.212,238.752C971.554,236.234 976.23,234.975 981.241,234.975ZM981.132,244.973C976.169,244.973 971.998,246.7 968.616,250.155C965.235,253.609 963.544,258 963.544,263.327C963.544,269.262 965.673,273.957 969.93,277.411C973.238,280.112 977.033,281.462 981.314,281.462C986.155,281.462 990.278,279.71 993.684,276.207C997.089,272.704 998.792,268.387 998.792,263.254C998.792,258.146 997.077,253.822 993.647,250.282C990.217,246.743 986.046,244.973 981.132,244.973Z" style="fill:rgb(204,25,57);fill-rule:nonzero;"/>
        <path d="M1061.932,236.326L1072.769,236.326C1078.631,236.326 1082.858,236.867 1085.449,237.949C1088.039,239.032 1090.083,240.783 1091.579,243.204C1093.075,245.624 1093.823,248.525 1093.823,251.906C1093.823,255.652 1092.844,258.766 1090.885,261.247C1088.927,263.728 1086.27,265.455 1082.913,266.428C1080.942,266.988 1077.354,267.268 1072.149,267.268L1072.149,290L1061.932,290L1061.932,236.326ZM1072.149,257.306L1075.396,257.306C1077.95,257.306 1079.726,257.124 1080.723,256.759C1081.721,256.394 1082.505,255.792 1083.077,254.953C1083.648,254.114 1083.934,253.098 1083.934,251.906C1083.934,249.838 1083.132,248.33 1081.526,247.382C1080.358,246.676 1078.193,246.323 1075.031,246.323L1072.149,246.323L1072.149,257.306Z" style="fill:rgb(204,25,57);fill-rule:nonzero;"/>
        <path d="M1115.723,236.326L1126.56,236.326C1132.495,236.326 1136.722,236.855 1139.24,237.913C1141.757,238.971 1143.783,240.728 1145.315,243.185C1146.848,245.642 1147.614,248.549 1147.614,251.906C1147.614,255.433 1146.769,258.383 1145.078,260.755C1143.387,263.126 1140.839,264.92 1137.434,266.137L1150.132,290L1138.966,290L1126.888,267.268L1125.94,267.268L1125.94,290L1115.723,290L1115.723,236.326ZM1125.94,257.306L1129.151,257.306C1132.41,257.306 1134.654,256.881 1135.883,256.029C1137.111,255.178 1137.725,253.767 1137.725,251.797C1137.725,250.629 1137.421,249.613 1136.813,248.75C1136.205,247.886 1135.39,247.266 1134.369,246.889C1133.347,246.512 1131.474,246.323 1128.749,246.323L1125.94,246.323L1125.94,257.306Z" style="fill:rgb(204,25,57);fill-rule:nonzero;"/>
        <path d="M1194.947,234.975C1202.536,234.975 1209.062,237.724 1214.523,243.222C1219.984,248.719 1222.714,255.421 1222.714,263.327C1222.714,271.16 1220.02,277.789 1214.632,283.213C1209.244,288.638 1202.706,291.35 1195.02,291.35C1186.968,291.35 1180.278,288.565 1174.951,282.994C1169.624,277.424 1166.96,270.807 1166.96,263.145C1166.96,258.012 1168.201,253.293 1170.682,248.987C1173.163,244.681 1176.575,241.27 1180.917,238.752C1185.259,236.234 1189.936,234.975 1194.947,234.975ZM1194.837,244.973C1189.875,244.973 1185.703,246.7 1182.322,250.155C1178.94,253.609 1177.25,258 1177.25,263.327C1177.25,269.262 1179.378,273.957 1183.635,277.411C1186.943,280.112 1190.738,281.462 1195.02,281.462C1199.86,281.462 1203.984,279.71 1207.389,276.207C1210.795,272.704 1212.498,268.387 1212.498,263.254C1212.498,258.146 1210.783,253.822 1207.353,250.282C1203.923,246.743 1199.751,244.973 1194.837,244.973Z" style="fill:rgb(204,25,57);fill-rule:nonzero;"/>
        <path d="M1275.82,236.326L1302.456,236.326L1302.456,246.287L1285.927,246.287L1285.927,256.029L1302.456,256.029L1302.456,265.845L1285.927,265.845L1285.927,290L1275.82,290L1275.82,236.326Z" style="fill:rgb(204,25,57);fill-rule:nonzero;"/>
        <rect x="1322.021" y="236.326" width="10.144" height="53.674" style="fill:rgb(204,25,57);fill-rule:nonzero;"/>
        <path d="M1355.561,236.326L1366.398,236.326C1372.334,236.326 1376.56,236.855 1379.078,237.913C1381.596,238.971 1383.621,240.728 1385.153,243.185C1386.686,245.642 1387.452,248.549 1387.452,251.906C1387.452,255.433 1386.607,258.383 1384.916,260.755C1383.226,263.126 1380.677,264.92 1377.272,266.137L1389.97,290L1378.804,290L1366.727,267.268L1365.778,267.268L1365.778,290L1355.561,290L1355.561,236.326ZM1365.778,257.306L1368.989,257.306C1372.249,257.306 1374.493,256.881 1375.721,256.029C1376.95,255.178 1377.564,253.767 1377.564,251.797C1377.564,250.629 1377.26,249.613 1376.652,248.75C1376.043,247.886 1375.229,247.266 1374.207,246.889C1373.185,246.512 1371.312,246.323 1368.588,246.323L1365.778,246.323L1365.778,257.306Z" style="fill:rgb(204,25,57);fill-rule:nonzero;"/>
        <path d="M1414.607,236.326L1424.605,236.326L1437.011,273.763L1449.599,236.326L1459.451,236.326L1468.5,290L1458.648,290L1452.883,256.102L1441.462,290L1432.45,290L1421.175,256.102L1415.3,290L1405.339,290L1414.607,236.326Z" style="fill:rgb(204,25,57);fill-rule:nonzero;"/>
        <path d="M1484.052,236.326L1495.035,236.326L1505.032,255.591L1514.957,236.326L1525.794,236.326L1510.104,266.757L1510.104,290L1499.815,290L1499.815,266.757L1484.052,236.326Z" style="fill:rgb(204,25,57);fill-rule:nonzero;"/>
    </g>
    <g transform="matrix(0.834865,0,0,0.834865,162.677535,247.389276)">
        <path d="M270.519,361L292.64,286.783L311.556,286.783L317.654,334.642L336.777,286.783L355.693,286.783L357.243,361L338.327,361L337.914,321.101L322.616,361L305.354,361L300.289,321.204L289.435,361L270.519,361Z" style="fill-rule:nonzero;"/>
        <path d="M394.352,304.769C397.866,304.769 400.795,305.441 403.138,306.784C405.481,308.128 407.342,309.903 408.72,312.108L409.65,306.113L429.806,306.113L421.951,361L401.794,361L402.621,355.832C400.692,357.761 398.538,359.329 396.161,360.535C393.783,361.741 390.803,362.344 387.22,362.344C384.394,362.344 381.793,361.844 379.415,360.845C377.038,359.846 374.971,358.364 373.213,356.4C371.456,354.436 370.095,352.024 369.131,349.165C368.166,346.305 367.683,342.98 367.683,339.19C367.683,334.504 368.304,330.076 369.544,325.907C370.784,321.738 372.576,318.086 374.919,314.95C377.262,311.815 380.07,309.334 383.343,307.508C386.617,305.682 390.286,304.769 394.352,304.769ZM395.489,343.634C398.59,343.634 401.036,342.515 402.828,340.275C404.62,338.035 405.515,335.09 405.515,331.437C405.515,328.819 404.895,326.837 403.655,325.494C402.414,324.15 400.657,323.478 398.383,323.478C395.282,323.478 392.819,324.598 390.992,326.837C389.166,329.077 388.253,331.989 388.253,335.572C388.253,338.122 388.891,340.103 390.166,341.515C391.44,342.928 393.215,343.634 395.489,343.634Z" style="fill-rule:nonzero;"/>
        <path d="M432.287,352.627L442.004,341.154C443.726,342.876 445.828,344.41 448.309,345.753C450.79,347.097 453.34,347.769 455.958,347.769C457.336,347.769 458.37,347.459 459.059,346.839C459.748,346.219 460.093,345.461 460.093,344.565C460.093,343.738 459.662,342.945 458.801,342.187C457.939,341.429 456.337,340.465 453.994,339.293L450.79,337.743C446.655,335.744 443.761,333.505 442.107,331.024C440.453,328.543 439.626,325.649 439.626,322.341C439.626,319.791 440.074,317.431 440.97,315.26C441.866,313.09 443.192,311.229 444.95,309.679C446.707,308.128 448.895,306.905 451.513,306.009C454.132,305.113 457.164,304.665 460.61,304.665C465.433,304.665 469.62,305.337 473.169,306.681C476.717,308.025 479.526,309.696 481.593,311.694L473.634,324.615C471.911,323.306 470.016,322.083 467.949,320.946C465.881,319.809 463.986,319.24 462.263,319.24C461.092,319.24 460.179,319.464 459.524,319.912C458.87,320.36 458.542,320.963 458.542,321.721C458.542,322.479 458.818,323.099 459.369,323.581C459.92,324.064 460.747,324.581 461.85,325.132L465.261,326.682C469.534,328.612 472.893,330.852 475.339,333.401C477.786,335.951 479.009,339.259 479.009,343.324C479.009,346.081 478.492,348.631 477.458,350.973C476.425,353.316 474.96,355.332 473.065,357.02C471.17,358.709 468.862,360.018 466.14,360.948C463.418,361.879 460.368,362.344 456.992,362.344C452.306,362.344 447.896,361.569 443.761,360.018C439.626,358.468 435.802,356.004 432.287,352.627Z" style="fill-rule:nonzero;"/>
        <path d="M494.1,306.113L514.773,306.113L507.434,361L486.554,361L494.1,306.113ZM507.021,283.372C510.053,283.372 512.637,284.199 514.773,285.853C516.91,287.507 517.978,289.712 517.978,292.468C517.978,294.26 517.65,295.81 516.996,297.12C516.341,298.429 515.463,299.497 514.36,300.324C513.257,301.151 511.948,301.771 510.432,302.185C508.916,302.598 507.331,302.805 505.677,302.805C502.094,302.805 499.389,301.995 497.563,300.376C495.737,298.756 494.824,296.637 494.824,294.019C494.824,292.434 495.151,290.987 495.806,289.677C496.46,288.368 497.339,287.248 498.442,286.318C499.544,285.388 500.836,284.664 502.318,284.147C503.799,283.63 505.367,283.372 507.021,283.372Z" style="fill-rule:nonzero;"/>
        <path d="M555.086,324.925L552.709,343.738L525.937,343.738L528.625,324.925L555.086,324.925Z" style="fill-rule:nonzero;"/>
        <path d="M567.077,336.812C567.077,332.264 567.852,328.026 569.402,324.098C570.953,320.17 573.124,316.777 575.915,313.917C578.705,311.057 582.013,308.8 585.838,307.146C589.662,305.492 593.883,304.665 598.5,304.665C601.67,304.665 604.53,305.01 607.079,305.699C609.629,306.388 611.886,307.267 613.85,308.335C615.814,309.403 617.502,310.592 618.915,311.901C620.328,313.21 621.482,314.485 622.378,315.726L607.079,328.543C605.977,327.303 604.719,326.252 603.307,325.39C601.894,324.529 600.051,324.098 597.776,324.098C594.882,324.098 592.47,325.097 590.541,327.096C588.611,329.094 587.647,331.747 587.647,335.055C587.647,337.812 588.456,339.931 590.076,341.412C591.695,342.894 593.78,343.634 596.329,343.634C598.535,343.634 600.378,343.238 601.859,342.446C603.341,341.653 604.771,340.671 606.149,339.5L618.346,353.661C615.521,356.073 612.093,358.14 608.061,359.863C604.03,361.586 599.327,362.447 593.952,362.447C589.955,362.447 586.303,361.896 582.995,360.793C579.687,359.691 576.862,358.054 574.519,355.883C572.176,353.713 570.35,351.042 569.041,347.872C567.731,344.703 567.077,341.016 567.077,336.812Z" style="fill-rule:nonzero;"/>
        <path d="M626.306,336.916C626.306,332.368 627.081,328.13 628.631,324.202C630.182,320.274 632.352,316.863 635.143,313.968C637.934,311.074 641.259,308.8 645.118,307.146C648.977,305.492 653.215,304.665 657.832,304.665C662.38,304.665 666.343,305.32 669.719,306.629C673.096,307.939 675.87,309.748 678.04,312.056C680.211,314.365 681.83,317.104 682.899,320.274C683.967,323.444 684.501,326.924 684.501,330.714C684.501,335.055 683.725,339.138 682.175,342.963C680.624,346.787 678.437,350.129 675.611,352.989C672.786,355.849 669.409,358.123 665.481,359.811C661.553,361.5 657.246,362.344 652.561,362.344C648.219,362.344 644.412,361.724 641.139,360.483C637.865,359.243 635.126,357.503 632.921,355.263C630.716,353.024 629.062,350.336 627.959,347.201C626.857,344.065 626.306,340.637 626.306,336.916ZM646.875,335.572C646.875,337.984 647.513,339.931 648.788,341.412C650.063,342.894 651.871,343.634 654.214,343.634C657.246,343.634 659.658,342.601 661.45,340.533C663.242,338.466 664.138,335.71 664.138,332.264C664.138,329.37 663.517,327.182 662.277,325.7C661.037,324.219 659.279,323.478 657.005,323.478C653.904,323.478 651.441,324.598 649.615,326.837C647.788,329.077 646.875,331.989 646.875,335.572Z" style="fill-rule:nonzero;"/>
        <path d="M720.162,324.098L722.746,306.113L729.672,306.113L730.085,303.012C730.499,299.98 731.153,297.258 732.049,294.846C732.945,292.434 734.185,290.401 735.77,288.747C737.355,287.093 739.336,285.818 741.714,284.923C744.091,284.027 747.003,283.579 750.448,283.579C753.411,283.579 755.978,283.923 758.149,284.612C760.32,285.302 761.922,285.956 762.956,286.576L761.095,299.704C760.13,299.153 759.166,298.739 758.201,298.463C757.236,298.188 756.202,298.05 755.1,298.05C753.515,298.05 752.309,298.619 751.482,299.756C750.655,300.893 750.138,302.254 749.931,303.839L749.621,306.113L759.028,306.113L756.444,324.098L747.141,324.098L741.972,361L721.919,361L727.088,324.098L720.162,324.098Z" style="fill-rule:nonzero;"/>
        <path d="M759.958,336.916C759.958,332.368 760.733,328.13 762.284,324.202C763.834,320.274 766.005,316.863 768.796,313.968C771.587,311.074 774.912,308.8 778.771,307.146C782.63,305.492 786.868,304.665 791.485,304.665C796.033,304.665 799.995,305.32 803.372,306.629C806.748,307.939 809.522,309.748 811.693,312.056C813.863,314.365 815.483,317.104 816.551,320.274C817.619,323.444 818.153,326.924 818.153,330.714C818.153,335.055 817.378,339.138 815.827,342.963C814.277,346.787 812.089,350.129 809.264,352.989C806.438,355.849 803.062,358.123 799.134,359.811C795.206,361.5 790.899,362.344 786.213,362.344C781.872,362.344 778.064,361.724 774.791,360.483C771.518,359.243 768.779,357.503 766.573,355.263C764.368,353.024 762.714,350.336 761.612,347.201C760.509,344.065 759.958,340.637 759.958,336.916ZM780.528,335.572C780.528,337.984 781.165,339.931 782.44,341.412C783.715,342.894 785.524,343.634 787.867,343.634C790.899,343.634 793.311,342.601 795.102,340.533C796.894,338.466 797.79,335.71 797.79,332.264C797.79,329.37 797.17,327.182 795.929,325.7C794.689,324.219 792.932,323.478 790.658,323.478C787.557,323.478 785.093,324.598 783.267,326.837C781.441,329.077 780.528,331.989 780.528,335.572Z" style="fill-rule:nonzero;"/>
        <path d="M826.216,336.916C826.216,332.368 826.991,328.13 828.541,324.202C830.092,320.274 832.263,316.863 835.054,313.968C837.844,311.074 841.169,308.8 845.028,307.146C848.887,305.492 853.125,304.665 857.742,304.665C862.291,304.665 866.253,305.32 869.63,306.629C873.006,307.939 875.78,309.748 877.95,312.056C880.121,314.365 881.741,317.104 882.809,320.274C883.877,323.444 884.411,326.924 884.411,330.714C884.411,335.055 883.636,339.138 882.085,342.963C880.535,346.787 878.347,350.129 875.521,352.989C872.696,355.849 869.319,358.123 865.391,359.811C861.464,361.5 857.157,362.344 852.471,362.344C848.129,362.344 844.322,361.724 841.049,360.483C837.775,359.243 835.036,357.503 832.831,355.263C830.626,353.024 828.972,350.336 827.87,347.201C826.767,344.065 826.216,340.637 826.216,336.916ZM846.786,335.572C846.786,337.984 847.423,339.931 848.698,341.412C849.973,342.894 851.782,343.634 854.125,343.634C857.157,343.634 859.569,342.601 861.36,340.533C863.152,338.466 864.048,335.71 864.048,332.264C864.048,329.37 863.428,327.182 862.187,325.7C860.947,324.219 859.19,323.478 856.915,323.478C853.814,323.478 851.351,324.598 849.525,326.837C847.699,329.077 846.786,331.989 846.786,335.572Z" style="fill-rule:nonzero;"/>
        <path d="M919.452,304.769C922.966,304.769 925.895,305.441 928.238,306.784C930.581,308.128 932.442,309.903 933.82,312.108L937.644,284.923L957.801,284.923L947.051,361L926.894,361L927.721,355.832C925.792,357.761 923.638,359.329 921.261,360.535C918.883,361.741 915.903,362.344 912.32,362.344C909.494,362.344 906.893,361.844 904.516,360.845C902.138,359.846 900.071,358.364 898.314,356.4C896.556,354.436 895.195,352.024 894.231,349.165C893.266,346.305 892.784,342.98 892.784,339.19C892.784,334.504 893.404,330.076 894.644,325.907C895.885,321.738 897.676,318.086 900.019,314.95C902.362,311.815 905.17,309.334 908.443,307.508C911.717,305.682 915.386,304.769 919.452,304.769ZM920.589,343.634C923.69,343.634 926.136,342.515 927.928,340.275C929.72,338.035 930.616,335.09 930.616,331.437C930.616,328.819 929.995,326.837 928.755,325.494C927.515,324.15 925.757,323.478 923.483,323.478C920.382,323.478 917.919,324.598 916.093,326.837C914.266,329.077 913.353,331.989 913.353,335.572C913.353,338.122 913.991,340.103 915.266,341.515C916.541,342.928 918.315,343.634 920.589,343.634Z" style="fill-rule:nonzero;"/>
    </g>
    <g transform="matrix(0.211313,0,0,0.209615,127.899185,427.550786)">
        <path d="M59.346,232.18C54.42,234.155 44.485,265.52 42.63,284.956C40.512,307.134 43.84,336.495 51.012,358.937C60.264,387.881 82.677,418.287 106.491,434.202C127.697,448.375 169.374,466.333 199.539,474.296C205.374,475.836 210.289,477.237 210.461,477.409C210.632,477.581 207.712,478.561 203.971,479.586C200.229,480.611 186.047,484.949 172.454,489.227C132.377,501.84 126.565,503.081 103.283,503.989C86.493,504.643 81.499,505.558 80.551,508.15C79.648,510.618 82.837,519.239 87.642,527.319C98.799,546.079 116.833,562.876 134.992,571.424C162.659,584.446 201.944,582.704 239.594,566.782C251.873,561.591 266.007,554.27 273.154,549.403C279.699,544.946 279.699,544.946 286.42,560.697C294.964,580.716 298.586,590.971 305.122,613.639C328.955,696.296 341.634,774.866 341.735,840.526C341.758,855.657 343.306,867.057 346.394,874.832C348.131,879.209 349.863,881.717 354.048,885.919C362.055,893.96 365.418,895.056 383.949,895.664C398.413,896.139 398.576,896.165 400.763,898.354C402.731,900.325 403.034,901.412 403.561,908.385C404.271,917.78 405.663,920.222 411.994,923.195C417.974,926.004 422.636,927.518 436.894,931.28C464.235,938.494 476.424,940.226 499.858,940.226C524.058,940.226 540.479,937.964 557.408,932.299C577.039,925.73 586.276,919.27 595.014,905.997C601.007,896.897 602.047,896.267 610.866,896.396C621.883,896.557 626.897,893.618 630.189,885.075C631.829,880.817 632.002,878.31 632.608,850.002C633.811,793.767 635.329,786.323 659.904,716.109C676.531,668.602 681.483,656.323 707.777,597.384C716.185,578.537 724.053,560.646 725.261,557.628C726.47,554.61 727.581,552.141 727.733,552.141C727.883,552.141 730.902,554.234 734.441,556.793C750.692,568.543 769.493,573.843 794.834,573.816C829.404,573.781 867.095,563.397 892.267,546.974C901.227,541.127 913.717,530.663 916.777,526.439C921.165,520.38 919.813,515.413 912.812,511.867C904.267,507.54 852.025,492.477 803.662,480.396C796.058,478.496 789.973,476.804 790.141,476.636C790.308,476.468 796.16,475.62 803.144,474.752C827.119,471.77 842.681,468.425 858.932,462.76C889.518,452.099 920.974,432.99 935.861,416.029C951.956,397.693 964.194,371.819 968.763,346.469C971.065,333.694 971.284,308.649 969.223,293.737C965.601,267.523 955.957,248.923 945.988,248.923C940.633,248.923 939.85,250.594 937.305,267.462C934.035,289.145 928.293,307.142 920.249,320.923C914.958,329.987 900.969,344.101 890.395,351.042C869.85,364.529 848.841,371.788 817.077,376.376C802.248,378.517 731.968,378.543 716.893,376.412C690.029,372.614 673.992,364.218 643.254,337.857C629.087,325.706 624.73,322.463 618.129,319.154C611.873,316.018 608.236,314.983 600.017,314.004C587.218,312.479 573.356,315.168 552.893,323.146C531.284,331.571 524.67,332.179 509.283,327.162C499.208,323.876 492.225,323.677 481.053,326.359C476.795,327.382 471.049,328.238 468.284,328.263C461.357,328.326 447.632,324.721 432.729,318.925C412.765,311.161 407.09,309.709 396.528,309.666C381.739,309.605 375.922,312.638 354.102,331.781C327.062,355.503 312.874,364.308 291.868,370.399C278.289,374.337 268.119,375.22 242.065,374.725C209.387,374.105 186.301,370.746 158.162,362.516C129.679,354.186 112.803,345.653 98.853,332.526C83.423,318.008 73.797,300.853 69.74,280.646C68.263,273.293 68.142,270.448 68.601,254.216C69.101,236.575 69.064,235.958 67.385,233.823C65.7,231.68 62.316,230.989 59.346,232.18Z"/>
    </g>
    <g transform="matrix(0.211313,0,0,0.209615,127.899185,427.550786)">
        <path d="M558.404,123.399C556.818,123.551 551.258,124.081 546.047,124.575C489,129.982 429.477,151.716 378.885,185.611C332.086,216.964 288.836,260.937 255.703,310.85C249.327,320.455 249.327,320.455 247.801,331.449C246.963,337.496 245.957,345.918 245.567,350.166C244.858,357.89 244.858,357.89 246.963,355.482C255.815,345.359 274.007,323.869 286.253,309.072C307.323,283.61 327.711,263.284 346.276,249.228C350.395,246.109 350.395,246.11 348.118,248.959C332.251,268.807 313.372,295.858 308.165,306.2C304.634,313.214 297.959,328.997 298.356,329.395C298.539,329.577 301.037,327.212 303.907,324.138C306.777,321.063 321.006,306.657 335.527,292.125C367.171,260.455 384.664,245.365 407.413,230.115C442.558,206.554 481.239,192.536 527.512,186.589C543.554,184.528 581.408,184.534 596.711,186.602C637.923,192.17 677.944,204.605 716.434,223.802C747.64,239.365 759.837,249.121 809.663,298.378C841.691,330.041 854.291,339.559 864.177,339.559C876.391,339.559 897.501,323.872 907.16,307.62C913.71,296.598 915.479,291.573 915.501,283.924C915.529,274.564 912.903,269.567 901.158,256.637C891.196,245.67 883.729,239.337 863.21,224.455C835.944,204.68 815.958,192.204 787.778,177.368C726.778,145.253 673.356,128.837 613.187,123.716C604.207,122.951 565.38,122.727 558.404,123.399ZM978.397,393.446C972.877,395.418 965.531,402.317 955.561,414.894C943.492,430.119 936.227,443.315 935.031,452.186C934.111,459 934.813,464.096 940.731,493.639C947.263,526.243 948.652,534.394 950.142,548.845C953.217,578.672 953.193,614.069 950.082,640.924C930.528,809.663 805.46,925.426 616.516,949.673C611.097,950.369 602.161,950.937 596.655,950.937C586.646,950.937 586.646,950.937 566.845,958.277C546.468,965.831 543.567,967.052 543.588,968.063C543.595,968.387 547.024,969.699 551.208,970.98C555.392,972.259 563.598,974.839 569.442,976.711C581.539,980.584 581.644,980.398 566.064,982.689C555.132,984.296 522.176,984.79 501.768,983.653C494.69,983.259 490.029,983.301 490.029,983.758C490.029,986.196 516.22,992.66 533.69,994.534C555.905,996.918 581.515,996.409 616.063,992.898C654.731,988.969 674.169,984.582 718.592,969.761C816.825,936.988 897.508,882.319 953.098,810.864C972.877,785.441 992.439,751.336 1005.56,719.404C1024.01,674.495 1033.12,642.42 1036.18,611.584C1037.26,600.705 1037.27,569.061 1036.2,554.612C1035.07,539.442 1031.65,513.978 1028.7,498.753C1025.93,484.498 1014.85,443.197 1009.78,428.195C1003.4,409.34 996.08,396.238 990.415,393.55C987.208,392.027 982.483,391.987 978.397,393.446Z" style="fill:rgb(204,25,57);"/>
    </g>
</svg>
